<?xml version="1.0" encoding="UTF-8" standalone="no"?>
<!DOCTYPE svg PUBLIC "-//W3C//DTD SVG 1.1//EN" "http://www.w3.org/Graphics/SVG/1.1/DTD/svg11.dtd">
<!-- Created with Vectornator (http://vectornator.io/) -->
<svg height="100%" stroke-miterlimit="10" style="fill-rule:nonzero;clip-rule:evenodd;stroke-linecap:round;stroke-linejoin:round;" version="1.1" viewBox="0 0 2436 1125" width="100%" xml:space="preserve" xmlns="http://www.w3.org/2000/svg" xmlns:vectornator="http://vectornator.io" xmlns:xlink="http://www.w3.org/1999/xlink">
<defs/>
<g id="Untitled" vectornator:layerName="Untitled">
<g opacity="1" vectornator:layerName="g">
<path d="M1080.23 534.39C1091.77 529.06 1101.15 520.36 1112.19 514.13C1140.17 498.35 1167.77 481.9 1195.45 465.61C1202.54 461.44 1203 468.41 1203.94 471.34C1210.33 491.34 1196.51 514.42 1176.63 521.27C1157.16 527.97 1135.89 526.56 1117.14 535.74C1114.72 536.92 1111.72 536.95 1109.58 539.74C1113.95 543.81 1119.93 543.89 1124.74 546.48C1135.98 552.53 1139.26 559.04 1136.85 571.62C1134.21 585.4 1125.64 595.65 1116.59 605.55C1111.52 611.1 1105.97 616.21 1100.69 621.57C1098.74 623.55 1095.86 625.73 1097.42 628.69C1099.16 631.96 1102.26 629.89 1104.92 629.2C1126.24 623.62 1145.81 614.06 1164.48 602.62C1177.97 594.35 1191.4 585.96 1204.46 577.05C1213.83 570.66 1216.96 559.33 1223.44 550.59C1237.5 531.62 1249.84 511.48 1266.64 494.42C1276.75 484.16 1286.52 474.66 1301 471.78C1315.46 468.91 1329.99 467.31 1344.21 473.07C1347.98 474.6 1352.09 476.34 1352.67 481.01C1353.23 485.5 1349.25 487.1 1346.31 489.43C1325.67 505.76 1309 525.96 1291.83 545.65C1277.48 562.11 1263.07 578.53 1252.26 597.7C1249.19 603.14 1245.47 608.26 1242.92 613.91C1241.41 617.27 1238.16 621.48 1242.1 625.15C1245.91 628.7 1250.27 625.78 1253.39 623.95C1265.01 617.14 1275.41 608.47 1284.76 598.9C1302.68 580.57 1319.6 561.28 1337.48 542.91C1356.41 523.45 1373.83 502.66 1392.25 482.77C1407.38 466.43 1443.02 464.85 1461.6 475.53C1466.57 478.39 1467.7 482.94 1462.65 486.96C1447.19 499.28 1435.59 514.96 1423.24 530.15C1405.31 552.21 1388.06 574.65 1373.51 599.09C1369.51 605.81 1365.85 612.71 1363.54 620.25C1362.59 623.36 1361.74 626.55 1364.48 628.98C1367.14 631.35 1370.22 630.34 1373.32 629.29C1394.45 622.14 1411.05 607.73 1428.33 594.57C1437.95 587.24 1446.24 578.19 1455.6 570.48C1459.57 567.21 1459.07 563.44 1459.09 559.5C1459.37 513.71 1483.31 483.64 1522.72 463.98C1530.08 460.31 1546.47 463.78 1552.46 470C1559.14 476.95 1557.14 485.2 1554.44 492.87C1549.57 506.68 1539.02 516.87 1530.65 528.47C1519.89 543.37 1504.3 553.3 1492.12 566.74C1483.74 575.99 1486.12 586.95 1498.2 590.67C1510.96 594.59 1523.23 591.56 1532.03 582.64C1549.62 564.82 1570.03 552.57 1593.78 545.38C1598.35 544 1602.26 542.46 1602.23 536.06C1602.1 507.63 1618.14 489.16 1641.98 477.58C1659.16 469.23 1677.31 462.19 1697.28 463.02C1710.22 463.56 1721.66 468.45 1731.42 476.2C1740.83 483.68 1742.06 494.95 1740.51 506.24C1738.99 517.38 1730.08 522.05 1721.17 525.88C1714.62 528.7 1709.9 523.89 1705.79 519.56C1700.74 514.25 1698.73 508.08 1701.16 500.67C1702.32 497.12 1707.43 493.4 1703.55 489.92C1700.22 486.93 1695.17 489.04 1691.04 490.63C1674.25 497.1 1662.65 507.77 1659.53 526.63C1658.13 535.09 1661.78 538.09 1668.64 539.77C1672.39 540.69 1677.38 539.55 1678.32 545.17C1679.26 550.85 1674.9 553.4 1671.23 556.33C1663.72 562.34 1654.49 562.94 1645.64 563.87C1615.13 567.06 1594.66 585.31 1577.46 608.49C1573.69 613.57 1570.7 620.36 1574.62 626.01C1578.45 631.54 1585.77 631.08 1592.01 630.23C1611.51 627.56 1630.48 622.92 1649.01 615.96C1669.79 608.15 1690.28 599.83 1709.7 589.05C1723.62 581.32 1733.79 569.45 1744.02 557.63C1767.79 530.15 1793.78 504.79 1818.96 478.64C1839.35 457.46 1862.33 439.08 1882.83 418.22C1908.03 392.58 1936.41 370.47 1961.26 344.5C1972.24 333.03 1984.77 323.02 1996.86 312.65C2007.04 303.92 2019.52 306.67 2031.15 307.38C2040.11 307.93 2048.85 311 2057.26 314.43C2068.53 319.03 2069.61 324.14 2061.48 332.57C2038.92 355.98 2013.98 376.82 1990.29 398.97C1966.31 421.38 1939.77 440.75 1916.37 463.58C1895.56 483.89 1871.59 500.59 1851.43 521.3C1829.87 543.44 1803.92 560.75 1784.22 584.89C1774.81 596.42 1761.15 604.06 1752.6 616.74C1750.51 619.84 1746.69 622.51 1749.26 626.48C1751.71 630.27 1756.11 628.79 1759.63 627.91C1786.9 621.11 1810.77 606.78 1835.51 594.14C1858.83 582.23 1874.54 562.8 1891.57 544.18C1915.43 518.09 1939.81 492.48 1965.73 468.32C1976.65 458.14 1986.87 447.18 1997.96 437.08C2027.51 410.16 2056.68 382.83 2085.66 355.29C2099.69 341.96 2114.11 329.09 2128.31 315.98C2142.69 302.71 2159.24 306.03 2175.26 308.57C2183.17 309.83 2191.51 312.75 2198.7 317.57C2205.15 321.9 2205.13 326.27 2199.87 331.22C2175.6 354.04 2150.8 376.28 2126.17 398.68C2101.69 420.95 2074.82 440.51 2051.55 463.9C2031.22 484.33 2007.98 501.21 1987.27 521.09C1969.96 537.71 1950.71 552.38 1934.05 569.59C1918.47 585.68 1900.66 599.64 1887.15 617.73C1885.15 620.41 1881.4 623.02 1883.61 626.54C1885.94 630.25 1890.6 628.93 1894.06 628.15C1907.81 625.05 1921.23 620.42 1933.59 613.92C1956.19 602.03 1979.46 591.21 1999.83 575.31C2003.95 572.09 2011.04 566.88 2015.53 572.96C2019.19 577.92 2014.35 584.11 2010.38 588.57C1996.95 603.69 1977.92 610.3 1961.27 620.52C1949.33 627.85 1936.33 633.29 1923.75 639.22C1904.3 648.39 1883.69 655.55 1861.37 652.24C1842.7 649.48 1836.68 640.1 1837.56 614.61C1824.87 620.93 1812.73 626.92 1800.63 633.01C1778.56 644.11 1756.3 654.02 1730.59 652.61C1710.72 651.52 1700.75 641.11 1702.18 621.32C1702.31 619.55 1703.8 617.59 1701.59 616.26C1699.49 614.99 1698.26 617.11 1696.66 617.86C1666.53 631.96 1636.9 647.59 1603.16 651.47C1582.53 653.84 1561.89 654.14 1542.25 645.77C1530.9 640.93 1524.38 631.69 1521.21 620.07C1519.64 614.32 1518.14 611.31 1510.46 612.37C1495.38 614.45 1481.31 611.25 1471.28 597.98C1467.63 593.15 1463.95 591.68 1458.18 596.75C1442.21 610.79 1423.61 621.29 1406.25 633.48C1393.83 642.21 1380.55 649.07 1365.6 651.55C1350.43 654.06 1335.08 654.02 1324.41 640.37C1314.97 628.31 1317.44 614.48 1320.81 600.9C1321.54 597.98 1322.45 595.11 1323.63 590.98C1311.09 596.68 1304.23 607.23 1294.49 614.2C1278.14 625.9 1264.76 641.57 1245.27 649.11C1231.56 654.42 1218 655.02 1205.86 647.39C1194.4 640.18 1192.58 627.63 1194.46 614.81C1194.78 612.65 1196.19 610.45 1193.83 608.89C1190.93 606.97 1189.24 610.02 1187.31 611.17C1162.96 625.69 1137.77 638.47 1111.08 648.15C1098.48 652.72 1085.32 653.49 1072.19 652.28C1046.28 649.88 1043.18 625.7 1055.61 608.48C1064.87 595.65 1076.01 584.19 1086.05 571.91C1089.99 567.08 1097.5 562.05 1092.53 555.22C1088.2 549.28 1080.8 553.24 1075.16 555.43C1047.4 566.23 1025.33 584.55 1006.64 607.46C995.97 620.55 983.07 631.61 971.9 644.33C965.22 651.94 947.85 652.75 939.18 647.97C933.39 644.78 932 640.88 932.5 628.12C927.06 630.29 921.6 631.65 917 634.43C892.89 649.04 866.48 653.46 838.91 652.38C814.9 651.44 801.95 638.42 800.62 614.4C800.33 609.25 799.43 607.83 794.05 609.95C773.3 618.12 752.1 622.35 730.25 614.22C726.76 612.92 724.11 613.9 721.44 615.52C708.91 623.09 696.87 631.6 683.85 638.2C662.44 649.06 639.93 655.25 615.35 651.22C594.36 647.79 584.99 626.26 588.6 608.66C593.21 586.23 604.53 567.33 619.93 551.04C642.73 526.93 667.36 504.77 697.25 489.62C722.95 476.59 749.23 465.21 779.21 466.6C787.6 466.99 795.01 469.86 798.24 476.47C807.34 495.08 815.46 514.73 802.89 534.93C793.33 550.29 782.45 564.83 768.58 576.82C762.49 582.08 756.7 587.68 750.83 593.19C749.49 594.44 747.77 595.83 748.54 597.94C749.28 599.97 751.3 600.39 753.24 600.29C774.25 599.14 794.34 594.87 808.93 578.28C825.4 559.55 840.04 539.12 857.32 521.21C870.24 507.82 886.32 497.52 903.23 489.24C923.39 479.37 944.5 473.36 967.3 474.26C982.15 474.84 994.64 480.62 1004.99 490.76C1015.5 501.06 1016.85 521.59 1007.85 533.07C1001.95 540.6 993.16 542.76 984.13 541.05C976.93 539.68 970.39 535.98 968.46 527.94C966.33 519.05 969.9 512.14 976.68 506.41C978.62 504.77 983.04 504.2 981.65 500.6C980.27 497.01 976.14 498.02 973.24 498.35C957.67 500.12 944.75 508.3 933.55 518.13C912.52 536.59 890.71 554.62 874.31 577.52C865.89 589.27 856.42 600.8 852.24 615.26C848.99 626.51 851.32 629.25 862.7 628.83C880.62 628.17 896.83 621.58 912.9 614.82C932.48 606.58 950.95 596.04 969.49 585.67C976.76 581.6 981.57 574.98 987.35 569.4C1019.74 538.06 1048.45 503.25 1079.36 470.5C1097.76 451.01 1117.5 432.54 1134.1 411.42C1145.19 397.32 1158.36 385.4 1170.79 372.7C1186.04 357.13 1200.73 340.99 1215.62 325.12C1235.51 303.92 1257.89 302.53 1282.35 311.52C1310.59 321.9 1303.45 323.76 1288.26 339.28C1265.13 362.91 1240.18 384.65 1216.33 407.48C1199.64 423.47 1181.42 437.78 1165.36 454.21C1138.08 482.13 1106.22 504.98 1080.23 534.39ZM743.07 514.39C736.17 515.94 731.14 518.39 726.62 521.66C709.73 533.86 692.22 545.19 676.22 558.63C658.83 573.25 645.4 591.02 634.23 610.53C631.67 615.01 628.53 620.61 632.79 626.19C636.98 631.67 642.19 630.17 648.05 629.2C669.6 625.64 687.66 614.57 705.81 603.59C709.88 601.13 711.2 597.95 710.6 592.67C709.1 579.46 712.11 566.94 717.14 554.45C723.09 539.69 734.61 528.96 743.07 514.39Z" fill="#4d5f71" fill-rule="nonzero" opacity="1" stroke="none" vectornator:layerName="path"/>
<path d="M361.91 536.6C370.46 533.26 379.33 530.55 387.5 526.45C418.39 510.96 451.12 499.69 482.22 484.77C505.51 473.6 528.34 461.44 551.27 449.51C569.46 440.05 587.71 430.69 605.52 420.55C631.2 405.92 656.39 390.44 681.98 375.66C717.89 354.92 751.51 330.78 785.15 306.67C806.97 291.03 826.85 273.06 845.57 253.8C849.6 249.66 852.25 244.61 854.55 239.61C858.77 230.41 854.75 220.98 844.78 218.06C821.85 211.33 798.43 208.97 774.48 211.47C758.37 213.15 742.18 213.52 726.03 215.63C704.09 218.5 682.3 222.23 660.41 225.34C637.86 228.54 615.36 232.59 593.54 238.76C541.77 253.4 488.8 264.25 439.26 286.2C429.41 290.57 421.18 297.14 413.34 304.27C410 307.3 407.54 311.41 409.01 316.01C410.77 321.49 416.25 322.56 421.04 323.61C426.81 324.87 432.81 325.05 438.58 326.31C441.44 326.94 445.14 328.06 445.28 331.89C445.42 335.85 441.61 337.27 438.83 337.6C422.84 339.52 407.37 336.87 394.31 327.42C384.34 320.21 383.6 304.22 390.92 292.42C400.28 277.32 415.55 269.53 430.46 261.82C483.17 234.57 539.33 217.36 597.28 205.27C634.23 197.56 671.24 190.81 708.98 188.19C727.34 186.91 745.73 183.94 764.05 184.91C792.89 186.44 822.3 185.88 849.56 197.9C871.21 207.44 889.08 221.24 894.84 245.61C898.23 259.95 895.77 273.98 889.3 287.5C878.52 310.02 861.24 326.67 843 343.05C814.17 368.96 780.23 386.64 747.29 406.18C709.81 428.41 669.24 443.71 629.95 461.94C590.85 480.08 550.18 493.77 509.46 507.33C470.23 520.4 431.49 535.07 391.25 545.01C389.3 545.49 386.22 544.57 386.02 547.64C385.85 550.19 388.51 550.89 390.44 551.91C421.58 568.32 447.27 592.24 474.82 613.56C505.35 637.19 534.73 662.42 563.29 688.25C587.6 710.23 614.1 729.27 638.75 750.71C662.5 771.38 690.41 786.71 716.85 803.91C736.15 816.47 756.6 825.73 778.11 833.27C788.22 836.81 789.57 841.64 781.3 848.38C766 860.84 747.45 863.57 728.42 862.9C702.79 861.99 679.75 852.32 658.06 839.63C640.91 829.6 624.55 818.33 609.9 804.61C592.35 788.18 572.62 774.12 556.07 756.62C519.78 718.22 483.55 679.75 447.87 640.78C430.32 621.61 412.11 603.37 392.22 586.53C380.44 576.55 369.13 566.75 354.57 561.14C343.23 556.77 333.78 557.55 324.94 567.22C309.33 584.29 293.94 601.51 280.31 620.18C276.34 625.63 269.78 632.5 274.63 639.58C280 647.43 288.26 642.25 295.3 640.44C297.1 639.98 298.74 638.87 300.54 638.45C304.35 637.55 307.41 639.03 309.35 642.3C311.6 646.11 308.43 648.44 306.07 650.01C295.66 656.95 283.6 658.68 271.52 660.01C264.6 660.77 257.78 659.61 251.08 658C239.11 655.13 233.49 642.91 236.71 627.74C239.41 615.03 244.89 603.45 251.6 592.57C269.5 563.55 291.78 537.89 314.11 512.26C330.33 493.65 348.91 477.37 365.97 459.58C382.93 441.89 403.81 428.03 421.86 411.29C442.37 392.27 465.26 376.96 489.51 363.48C500.54 357.35 512.53 353.61 525.3 354.11C530.12 354.3 533.39 350.93 537.61 350.47C548.06 349.31 557.41 354.31 567.19 356.7C569.97 357.38 574 361.19 568.55 364.12C542.67 378.07 519.37 395.55 496.94 414.45C478.82 429.72 458.73 442.82 441.63 459.1C422.17 477.63 400.92 494.03 381.43 512.49C373.98 519.54 367.08 526.8 360.48 534.48C360.94 535.18 361.42 535.89 361.91 536.6Z" fill="#4d5f71" fill-rule="nonzero" opacity="1" stroke="none" vectornator:layerName="path"/>
<path d="M1241.08 763.02C1259.19 750.57 1276.94 739.34 1295.95 730.08C1317.82 719.42 1339.84 708.95 1360.97 696.95C1369.56 692.07 1377.8 686.38 1386.72 681.93C1389.82 680.38 1393.08 678.68 1396.58 679.64C1412.42 684.01 1428.47 687.35 1443.81 693.82C1456.36 699.12 1469.99 701.91 1483.22 705.52C1516.6 714.64 1549.96 723.82 1583.45 732.53C1604.54 738.01 1625.72 743.6 1647.55 745.07C1670.93 746.64 1691.8 739.29 1710.22 724.87C1724.83 713.43 1741.31 705.51 1758.38 698.41C1782.06 688.56 1806.29 682.98 1832.03 685.66C1833.67 685.83 1835.61 686.18 1836.3 684.72C1843.93 668.66 1857.56 677.42 1868.87 676.78C1871.01 676.66 1873.21 677.59 1875.36 677.47C1881.56 677.11 1885.24 678.97 1886.4 685.89C1887.37 691.67 1891.61 694.88 1897.62 697.09C1924.09 706.83 1947.71 721.87 1966.24 742.88C1996 776.63 2007.84 816.05 2001.29 861.53C1998.25 882.65 1992.8 902.51 1983.07 920.98C1971.3 943.32 1951.87 958.02 1929.05 968.18C1902.18 980.14 1874.15 984.85 1844.6 983.92C1815.24 983 1788.41 974.08 1762.49 961.86C1722.93 943.2 1696.2 911.33 1677.22 873.04C1662.32 842.99 1641.1 822.26 1608.67 811.22C1576.48 800.25 1543.44 793.02 1510.82 783.95C1500.31 781.03 1489.82 778.05 1479.37 774.93C1454.01 767.38 1428.26 764.61 1401.7 765.12C1352.5 766.08 1303.27 765.42 1254.05 765.34C1250.14 765.34 1245.97 766.42 1241.08 763.02ZM1846.2 948.23C1861.22 950.06 1877.1 947.11 1892.9 942.78C1923.92 934.29 1945.05 914.49 1958.22 885.82C1967.55 865.52 1968.57 843.9 1967.29 821.9C1965.44 790.12 1949.91 764.79 1926.63 745.63C1898.53 722.5 1863.24 717.23 1827.91 716.95C1811.29 716.82 1794.49 720.02 1778.52 726.05C1744.5 738.89 1720.78 761.54 1711.82 797.35C1707.88 813.11 1708.82 829.41 1710.6 845.68C1714.75 883.77 1732.91 913 1766.05 931.64C1790.17 945.23 1816.99 950.03 1846.2 948.23Z" fill="#4d5f71" fill-rule="nonzero" opacity="1" stroke="none" vectornator:layerName="path"/>
<path d="M611.3 671.19C841.73 671.19 1071.41 671.19 1303.72 671.19C1293.44 678.86 1283.85 681.61 1275.02 685.8C1255.63 694.98 1236.98 705.63 1217.15 713.98C1196.48 722.68 1176.24 732.41 1155.83 741.73C1152.13 743.42 1147.79 744.54 1145 747.22C1133.82 757.98 1120.09 754.97 1108.72 751.25C1094.25 746.51 1079.48 745.46 1064.91 743.1C1024.65 736.57 984.12 731.68 943.77 725.7C913.59 721.22 883.62 715.07 853.35 711.46C820.84 707.59 788.75 701.01 756.2 697.65C742.61 696.25 729.97 691.01 716.26 689.45C683.49 685.71 650.94 680.03 618.3 675.12C616.01 674.75 613.18 675.71 611.3 671.19Z" fill="#4d5f71" fill-rule="nonzero" opacity="1" stroke="none" vectornator:layerName="path"/>
<path d="M1660.89 668.76C1654.18 675.98 1644.99 679.45 1637.14 684.71C1628.63 690.41 1621.43 697.74 1612.49 702.92C1606.02 706.67 1600.02 707.62 1592.88 706.14C1569.67 701.33 1548.49 690.29 1525.6 684.48C1512.32 681.11 1499.24 676.95 1486.07 673.15C1484.58 672.72 1482.99 672.53 1481.59 671.9C1480.01 671.19 1477.4 671.22 1477.52 668.79C1477.64 666.25 1480.09 666.57 1481.86 666.38C1483.41 666.21 1484.99 666.26 1486.56 666.26C1541.43 666.25 1596.31 666.23 1651.18 666.32C1654.36 666.33 1658.09 665.04 1660.89 668.76Z" fill="#4d5f71" fill-rule="nonzero" opacity="1" stroke="none" vectornator:layerName="path"/>
</g>
</g>
</svg>
